<svg width="242" height="79" viewBox="0 0 242 79" fill="none" xmlns="http://www.w3.org/2000/svg">
<g clip-path="url(#clip0_293_2)">
<path d="M80.8571 79V0H0V79H80.8571Z" fill="#DDDDDD"/>
<path d="M162.096 79V0H80.8574V79H162.096Z" fill="#000005"/>
<path d="M242 79V0H162.096V79H242Z" fill="#BEBEBE"/>
<path d="M48.8908 60.9125V36.989C48.8908 33.4694 48.2241 30.9011 46.8432 29.2364C45.4622 27.5718 43.2718 26.8108 40.1765 26.8108C38.5575 26.8583 37.0337 27.2864 35.6051 27.9998C34.1289 28.6657 32.7956 29.7121 31.7956 30.9962V60.9601H22.1289V19.3436H29.1289L30.9384 23.2437C33.5575 20.1997 37.4622 18.6777 42.6527 18.6777C47.6051 18.6777 51.5099 20.1521 54.367 23.101C57.2241 26.0498 58.6527 30.1877 58.6527 35.467V60.9601L48.8908 60.9125Z" fill="white"/>
<path d="M120.7 61.721C127.034 61.721 132.081 59.8661 135.748 56.2039C139.414 52.5416 141.272 47.3098 141.272 40.5085C141.272 25.907 134.653 18.6301 121.367 18.6301C118.034 18.535 114.795 19.7716 112.414 22.1021V19.3435H102.7V71.9468H112.367V59.9137C114.986 61.1503 117.843 61.7686 120.7 61.721ZM118.557 26.9058C123.034 26.9058 126.224 27.9046 128.176 29.9022C130.129 31.8998 131.081 35.3718 131.081 40.2707C131.081 44.8842 130.081 48.2135 128.176 50.3538C126.224 52.494 123.034 53.5404 118.557 53.5404C116.319 53.588 114.129 52.827 112.414 51.4001V29.6169C113.986 27.9046 116.224 26.9534 118.557 26.9058Z" fill="white"/>
<path d="M213.462 28.4279C211.748 27.334 209.795 26.7632 207.795 26.8108C205.557 26.8108 203.557 27.8096 201.843 29.8547C200.081 31.9475 199.129 34.6109 199.224 37.3219V60.9125H189.51V19.3436H199.224V23.3388C201.938 20.2473 205.51 18.6777 210.034 18.6777C213.319 18.6777 215.843 19.2009 217.605 20.1997L213.462 28.4279Z" fill="white"/>
</g>
<defs>
<clipPath id="clip0_293_2">
<rect width="242" height="79" fill="white"/>
</clipPath>
</defs>
</svg>
